# xmcd
#
# Track frame offsets: 
#        150
#        25995
#        39771
#        57884
#        77832
#        95586
#        114107
#        134223
#        150251
#        171029
#        186458
#        212847
#
# Disc length: 3059 seconds
#
# Revision: 0
# Processed by: cddbd v1.5.2PL0 Copyright (c) Steve Scherf et al.
# Submitted via: ExactAudioCopy v0.99pb3
#
DISCID=9a0bf10c
DTITLE=P'tits yeux - Les temps heureux
DYEAR=2009
DGENRE=Chanson
TTITLE0=Elsa
TTITLE1=Place Sainte Catherine
TTITLE2=Rue St Malo
TTITLE3=5, rue de lagare
TTITLE4=Le 10 du mois
TTITLE5=Le croque-madame
TTITLE6=La valse du Bleizi-Mor
TTITLE7=La bourgeoise
TTITLE8=Les temps heureux
TTITLE9=La parisienne
TTITLE10=Gamin d'vingt ans
TTITLE11=Les p'tits yeux
EXTD=
EXTT0=
EXTT1=
EXTT2=
EXTT3=
EXTT4=
EXTT5=
EXTT6=
EXTT7=
EXTT8=
EXTT9=
EXTT10=
EXTT11=
PLAYORDER=
